<svg xmlns="http://www.w3.org/2000/svg" viewBox="0 0 24 24" fill="#2563eb"><path d="M17.062 2.284a4.108 4.108 0 0 0-1.924.699l-.38.254-4.869.014c-5.409.016-5.093 0-5.715.288-.922.426-1.638 1.292-1.836 2.221-.083.387-.083 1.092-.001 1.473.203.94.913 1.801 1.837 2.228.622.288.306.272 5.715.288l4.869.014.38.254a4.235 4.235 0 0 0 4.729-.001c1.69-1.124 2.331-3.34 1.512-5.229-.573-1.324-1.955-2.358-3.319-2.484-.56-.052-.646-.054-.998-.019m1.298 1.593c.384.131.767.373 1.076.682.318.317.524.639.674 1.049.098.268.107.341.107.892 0 .551-.009.624-.107.892a2.922 2.922 0 0 1-1.75 1.734c-.226.079-.338.091-.86.091s-.634-.012-.86-.091c-.804-.283-1.496-.975-1.762-1.766-.12-.355-.15-1.065-.063-1.475.205-.963 1.077-1.849 2.032-2.066.38-.087 1.177-.056 1.513.058m-4.76.901c0 .009-.053.176-.118.37a3.801 3.801 0 0 0-.21 1.352c.001.538.056.891.21 1.352.065.194.118.361.118.371 0 .01-1.922.014-4.272.008L5.056 8.22l-.301-.149a1.828 1.828 0 0 1-.847-.861c-.12-.253-.128-.298-.128-.71s.008-.457.127-.709a1.832 1.832 0 0 1 1.072-.959c.186-.064.523-.069 4.411-.071 2.316 0 4.21.007 4.21.017m-7.54 8.506c-1.7.166-3.155 1.385-3.636 3.046-.269.928-.186 2.049.216 2.937.182.402.529.895.863 1.23a4.246 4.246 0 0 0 5.406.491l.329-.225 4.871-.014c5.412-.016 5.095 0 5.717-.288.924-.427 1.634-1.288 1.837-2.228.036-.167.063-.483.063-.733s-.027-.566-.063-.733c-.203-.94-.913-1.801-1.837-2.228-.622-.288-.305-.272-5.717-.288l-4.871-.014-.329-.225c-.573-.392-1.258-.655-1.849-.709-.559-.052-.646-.054-1-.019m1.3 1.593c.384.131.767.373 1.076.682.318.317.524.639.674 1.049.098.268.107.341.107.892 0 .551-.009.624-.107.892a2.922 2.922 0 0 1-1.75 1.734c-.226.079-.338.091-.86.091s-.634-.012-.86-.091c-.804-.283-1.496-.975-1.762-1.766-.12-.355-.15-1.065-.063-1.475.205-.963 1.077-1.849 2.032-2.066.38-.087 1.177-.056 1.513.058m11.85 1.031c.376.178.677.474.861.847.145.293.149.313.149.745s-.004.452-.149.745a1.828 1.828 0 0 1-.861.847l-.27.128-4.288.011-4.288.01.075-.17c.384-.868.384-2.274 0-3.142l-.075-.17 4.288.01 4.288.011.27.128" fill-rule="evenodd"></path></svg>