<svg fill="#fff" xmlns="http://www.w3.org/2000/svg" viewBox="0 0 24 24"><path d="M11.409 2.456c-.837.211-1.573.945-1.789 1.784-.138.534-.067 1.272.169 1.737.259.513.656.895 1.191 1.146.418.196.727.254 1.212.226a2.47 2.47 0 0 0 2.22-1.729c.125-.398.125-1.084-.001-1.48-.235-.741-.833-1.37-1.542-1.622-.313-.111-1.13-.146-1.46-.062m1.076 1.536a.993.993 0 0 1 .232 1.606c-.624.606-1.68.148-1.676-.727.003-.739.792-1.22 1.444-.879M3.99 7.523c-.395.208-.498.768-.204 1.117.138.164.236.21.754.351 1.178.322 2.49.554 3.998.709.328.034.605.07.615.08.029.028-.069 4.779-.114 5.52-.126 2.1-.344 3.616-.67 4.66-.182.583-.201.78-.097.985a.93.93 0 0 0 .154.22c.339.298.878.242 1.12-.118.217-.321.517-1.506.711-2.807.078-.521.223-1.937.223-2.174 0-.097.011-.232.025-.301l.025-.125H13.467l.05.59c.101 1.184.34 2.583.684 4.004.18.745.251.892.5 1.037.228.132.589.112.795-.045a.782.782 0 0 0 .304-.579c0-.086-.08-.488-.177-.892a24.433 24.433 0 0 1-.702-4.815c-.045-.851-.106-5.18-.073-5.18.012 0 .289-.027.617-.061 1.507-.154 2.814-.386 3.995-.708.518-.141.616-.187.754-.351.298-.354.19-.914-.216-1.121-.208-.106-.46-.1-.898.023-1.675.468-3.817.754-6.09.812-3.088.079-5.951-.207-8.11-.812-.434-.122-.705-.127-.91-.019m9.37 3.897c0 .858.012 1.817.026 2.13l.026.57H10.58l.025-1.07c.014-.588.027-1.547.03-2.13l.005-1.06h2.72v1.56" fill-rule="evenodd"></path></svg>