<svg xmlns="http://www.w3.org/2000/svg" viewBox="0 0 24 24"><path d="M6.872 2.281a2.996 2.996 0 0 0-2.541 2.277c-.067.283-.071.748-.071 7.442s.004 7.159.071 7.442a3.03 3.03 0 0 0 2.227 2.227c.281.066.662.071 5.442.071s5.161-.005 5.442-.071a3.03 3.03 0 0 0 2.227-2.227c.067-.283.071-.748.071-7.442s-.004-7.159-.071-7.442c-.248-1.056-1.073-1.907-2.143-2.21-.306-.086-.308-.086-5.346-.093-2.772-.003-5.16.008-5.308.026m10.497 1.607a1.7 1.7 0 0 1 .743.743l.108.229v14.28l-.108.229a1.7 1.7 0 0 1-.743.743l-.229.108H6.86l-.229-.108a1.7 1.7 0 0 1-.743-.743l-.108-.229-.01-7.079c-.012-7.805-.029-7.237.236-7.638.16-.242.417-.448.703-.566l.231-.096 5.1.01 5.1.009.229.108M11.724 17.18a.993.993 0 0 0-.331.207.85.85 0 0 0-.023 1.199c.596.646 1.663.082 1.471-.778a.857.857 0 0 0-.573-.628c-.242-.072-.313-.072-.544 0" fill-rule="evenodd"></path></svg>