<svg xmlns="http://www.w3.org/2000/svg" viewBox="0 0 24 24"><path d="M7.66 2.278A2.76 2.76 0 0 0 5.352 4.26l-.092.32v14.84l.092.32a2.797 2.797 0 0 0 1.908 1.908l.32.092h8.84l.32-.092a2.797 2.797 0 0 0 1.908-1.908l.092-.32V4.58l-.092-.32a2.818 2.818 0 0 0-1.888-1.906l-.3-.091-4.28-.007c-2.354-.004-4.388.006-4.52.022m8.794 1.563c.29.109.596.415.705.705.08.215.081.28.081 7.454 0 7.174-.001 7.239-.081 7.454-.109.29-.415.596-.705.705-.213.08-.294.081-4.454.081s-4.241-.001-4.454-.081a1.337 1.337 0 0 1-.705-.706c-.081-.217-.082-.256-.071-7.526l.01-7.307.087-.162c.157-.293.484-.573.773-.661.055-.016 2.012-.032 4.348-.034 4.176-.003 4.253-.002 4.466.078m-5.889 1.438a.743.743 0 0 0-.434.319c-.313.46-.013 1.072.561 1.142.114.014.784.02 1.488.013 1.381-.014 1.4-.017 1.608-.24A.886.886 0 0 0 14 6a.886.886 0 0 0-.212-.513c-.21-.226-.215-.226-1.708-.234-.759-.004-1.441.008-1.515.026m1.052 11.298c-.183.079-.41.294-.508.479-.121.229-.121.659 0 .888.1.19.328.402.517.481.169.071.579.071.748 0 .189-.079.417-.291.517-.481.065-.123.087-.234.087-.444s-.022-.321-.087-.444c-.1-.19-.328-.402-.517-.481-.166-.07-.596-.069-.757.002" fill-rule="evenodd"></path></svg>