<svg xmlns="http://www.w3.org/2000/svg" viewBox="0 0 24 24"><path d="M2.76 2.286c-.739.122-1.357.755-1.478 1.514-.057.358-.057 11.042 0 11.4.124.778.74 1.394 1.518 1.518.162.026 1.338.042 3.11.042h2.85v2.201c0 1.759.011 2.228.054 2.331.065.155.305.375.457.417.142.04 5.316.04 5.458 0 .152-.042.392-.262.457-.417.043-.103.054-.572.054-2.331V16.76h2.85c1.772 0 2.948-.016 3.11-.042a1.834 1.834 0 0 0 1.518-1.518c.057-.358.057-11.042 0-11.4A1.834 1.834 0 0 0 21.2 2.282c-.331-.053-18.119-.049-18.44.004m18.382 1.572.098.098v11.088l-.098.098-.098.098H2.956l-.098-.098-.098-.098V3.956l.098-.098.098-.098h18.088l.098.098M13.76 18.5v1.74h-3.52v-3.48h3.52v1.74" fill-rule="evenodd"></path></svg>