<svg fill="#2563eb" xmlns="http://www.w3.org/2000/svg" viewBox="0 0 24 24"><path d="M11.28 2.278C8.942 2.474 6.87 3.405 5.225 5c-1.568 1.52-2.544 3.429-2.867 5.608a10.9 10.9 0 0 0 0 2.784 9.467 9.467 0 0 0 .881 2.868A9.14 9.14 0 0 0 5 18.775a9.665 9.665 0 0 0 4.588 2.667 9.992 9.992 0 0 0 4.824 0 9.874 9.874 0 0 0 3.728-1.87c.5-.403 1.23-1.154 1.607-1.652a9.934 9.934 0 0 0 1.695-3.508c.388-1.503.388-3.321 0-4.824A9.646 9.646 0 0 0 19 5.225a9.665 9.665 0 0 0-4.588-2.667c-.91-.235-2.242-.355-3.132-.28m1.289 1.592c.398.178.761.704 1.319 1.91.348.752.885 2.26.826 2.319-.157.157-5.271.157-5.428 0-.028-.027.216-.808.424-1.359.309-.82.905-2.031 1.208-2.457.126-.178.391-.371.618-.452.274-.098.768-.079 1.033.039m-3.606.844c-.13.26-.321.67-.424.91-.2.467-.675 1.856-.721 2.109-.016.084-.052.163-.082.174-.126.048-2.451-.415-2.551-.508C5.08 7.3 6.42 5.854 7.05 5.386A8.843 8.843 0 0 1 8.56 4.5c.569-.251.578-.254.61-.257.017-.002-.076.21-.207.471m6.099-.379a8.274 8.274 0 0 1 1.858 1.036c.676.498 2.006 1.925 1.892 2.031-.092.086-2.43.55-2.546.506-.031-.012-.069-.091-.084-.175-.048-.26-.522-1.649-.72-2.109-.103-.24-.295-.65-.425-.91a5.924 5.924 0 0 1-.225-.474c.007 0 .12.043.25.095M5.22 8.958c.62.151 1.379.306 1.964.401l.285.046-.031.168c-.214 1.163-.214 3.691 0 4.854l.031.168-.285.046c-.579.094-1.502.284-2.124.438-.351.087-.651.145-.666.129a6.018 6.018 0 0 1-.209-.568c-.306-.911-.425-1.65-.425-2.64 0-.96.119-1.727.398-2.56.237-.707.23-.693.333-.663.049.014.377.095.729.181m14.587.382c.313.925.433 1.661.433 2.66 0 .99-.119 1.729-.425 2.64-.1.297-.194.553-.209.568-.015.016-.315-.042-.666-.129a31.304 31.304 0 0 0-2.124-.438l-.285-.046.031-.168c.017-.092.061-.455.097-.807.119-1.143.071-3.133-.097-4.047l-.031-.168.285-.045a31.941 31.941 0 0 0 2.164-.454c.286-.074.547-.133.579-.13.039.003.124.196.248.564m-9.646.34c.87.053 2.835.049 3.738-.008.418-.027.85-.05.96-.05l.198-.002.032.18c.195 1.122.195 3.278 0 4.4l-.032.18-.198-.002c-.11-.001-.531-.023-.936-.05-.946-.062-2.9-.062-3.846 0-.405.027-.826.049-.936.05l-.198.002-.031-.18c-.192-1.111-.196-3.214-.009-4.36.043-.26.032-.253.349-.225.16.015.569.044.909.065m4.117 6.16c.23.024.426.051.436.061.029.028-.181.703-.403 1.299-.372.999-1.013 2.27-1.322 2.623a1.484 1.484 0 0 1-.38.285c-.202.099-.274.112-.609.112-.67 0-.933-.196-1.403-1.045a14.801 14.801 0 0 1-1.172-2.741 6.505 6.505 0 0 1-.145-.506c0-.047.305-.085 1.04-.13.668-.042 3.433-.012 3.958.042m-6.377.72c.287.991.615 1.835 1.062 2.726.131.261.232.474.225.474-.019 0-.462-.179-.681-.275-.335-.147-1.032-.566-1.427-.856-.67-.494-2.006-1.924-1.894-2.028.037-.036 1.071-.278 1.614-.379 1.047-.194.938-.228 1.101.338m8.839-.42c.674.11 2.017.407 2.072.458.094.088-1.002 1.32-1.612 1.813-.578.468-1.489 1.011-2.054 1.224l-.276.106c-.05.02.017-.152.23-.587a15.86 15.86 0 0 0 1.04-2.734l.081-.29c.021-.063.076-.062.519.01" fill-rule="evenodd"></path></svg>
