<svg fill="#fff" xmlns="http://www.w3.org/2000/svg" viewBox="0 0 24 24"><path d="M11.46 4.283c-2.079.139-4.351 1.323-6.322 3.295a14.954 14.954 0 0 0-2.469 3.232c-.322.557-.397.783-.397 1.19 0 .417.077.641.427 1.237.979 1.67 2.179 3.091 3.525 4.174 1.94 1.561 3.82 2.315 5.776 2.315 1.248 0 2.307-.259 3.54-.865 1.758-.865 3.587-2.458 4.866-4.241.555-.774 1.085-1.653 1.233-2.045.123-.324.124-.824.002-1.144-.142-.378-.709-1.318-1.235-2.051-.698-.971-1.728-2.065-2.63-2.791C15.674 4.897 13.6 4.14 11.46 4.283m1.507 1.555c1.632.279 3.257 1.223 4.854 2.821.857.857 1.446 1.615 2.103 2.71.178.297.316.572.316.63 0 .117-.481.944-.885 1.522-.922 1.318-2.18 2.567-3.414 3.389-2.416 1.61-4.736 1.759-7.13.458-1.487-.808-3.054-2.255-4.16-3.84-.408-.584-.891-1.413-.891-1.527 0-.058.137-.333.31-.623a13.009 13.009 0 0 1 2.109-2.719c2.239-2.24 4.556-3.203 6.788-2.821m-1.422 2.567c-.339.044-.93.238-1.225.402-.96.535-1.602 1.383-1.868 2.464-.082.338-.093 1.216-.018 1.529.319 1.329 1.161 2.311 2.346 2.735 2.183.78 4.486-.544 4.927-2.834.072-.375.05-1.144-.042-1.501-.294-1.129-.95-1.945-1.973-2.456-.657-.328-1.363-.439-2.147-.339m1.107 1.455c.385.1.706.289 1.012.596.457.456.671.967.672 1.604a2.292 2.292 0 0 1-1.616 2.185c-.342.109-.923.117-1.258.018-.788-.232-1.405-.853-1.602-1.611-.076-.291-.077-.85-.002-1.139a2.33 2.33 0 0 1 1.638-1.653c.274-.074.874-.074 1.156 0" fill-rule="evenodd"></path></svg>