<?xml version="1.0" encoding="UTF-8"?>
<svg id="Ebene_1" xmlns="http://www.w3.org/2000/svg" version="1.1" viewBox="0 0 24 24">
  <!-- Generator: Adobe Illustrator 29.1.0, SVG Export Plug-In . SVG Version: 2.1.0 Build 142)  -->
  <defs>
    <style>
      .st0 {
        fill: #2563eb;
        fill-rule: evenodd;
      }
    </style>
  </defs>
  <path class="st0" d="M11.4,2.3c-1.2,0-2.5.4-3.5.9s-.4.2-.5.4c-.3.5,0,1.1.6,1.1.2,0,.3,0,.7-.2.6-.3,1.2-.5,1.8-.6.6-.1,1.9-.2,2.5,0,1.9.2,3.5,1,4.8,2.3,1.4,1.4,2.2,3,2.5,5,0,.5,0,1.6,0,2.1-.1.8-.4,1.6-.7,2.4-.2.4-.2.7,0,.9.2.3.7.4,1,.2.2,0,.2-.2.4-.5.7-1.5,1-3.1.9-4.7,0-.4,0-.9-.2-1.3-.4-1.9-1.3-3.7-2.8-5.1-2-1.9-4.7-2.9-7.4-2.7M3.8,3.3c-.2,0-.4.2-.5.3-.1.2-.1.5,0,.7,0,0,3.7,3.8,8.2,8.2,7.9,7.9,8.1,8.1,8.3,8.1.6.1,1-.3.9-.9,0-.2-.2-.4-8.1-8.3C8.1,7.1,4.4,3.4,4.4,3.4c-.2,0-.4-.1-.6,0M3.8,7.2c-.3,0-.4.2-.6.6-1,2-1.2,4.6-.6,6.8.6,1.9,1.7,3.7,3.3,4.9.7.6,1.9,1.2,2.7,1.5,1.3.5,2.6.7,4,.6,1.2,0,2.5-.4,3.6-.9.4-.2.4-.2.5-.4.2-.3.1-.8-.2-1-.2-.2-.5-.2-.9,0-1.2.5-2.2.8-3.5.8-.9,0-1.8-.1-2.7-.4-1.2-.4-2.2-1-3.1-1.9-1.4-1.4-2.2-3-2.5-5,0-.5,0-1.5,0-2.1.1-.8.3-1.6.7-2.4.2-.4.2-.7,0-.9-.2-.2-.5-.4-.8-.3"/>
</svg>