<?xml version="1.0" encoding="utf-8"?>
<!-- Generator: Adobe Illustrator 28.1.0, SVG Export Plug-In . SVG Version: 6.00 Build 0)  -->
<svg version="1.1" id="Ebene_1" xmlns="http://www.w3.org/2000/svg" xmlns:xlink="http://www.w3.org/1999/xlink" x="0px" y="0px"
	 viewBox="0 0 24 24" style="enable-background:new 0 0 24 24;" xml:space="preserve">
<style type="text/css">
	.st0{fill-rule:evenodd;clip-rule:evenodd;fill:#2563EB;}
</style>
<path class="st0" d="M3.7,4.3c-1.1,0.1-2,0.9-2.3,2L1.3,6.6v10.8l0.1,0.3c0.3,0.9,1,1.6,1.9,1.9l0.3,0.1h16.8l0.3-0.1
	c0.9-0.3,1.6-1,1.9-1.9l0.1-0.3V6.6l-0.1-0.3c-0.3-0.9-1-1.6-1.9-1.9l-0.3-0.1l-8.3,0C7.6,4.3,3.8,4.3,3.7,4.3 M20.5,5.8
	c0.3,0.1,0.6,0.4,0.7,0.7c0.1,0.2,0.1,0.3,0.1,5.5s0,5.2-0.1,5.5c-0.1,0.3-0.4,0.6-0.7,0.7c-0.2,0.1-0.3,0.1-8.5,0.1s-8.2,0-8.5-0.1
	C3.2,18,3,17.8,2.8,17.5c-0.1-0.2-0.1-0.3-0.1-5.5l0-5.3l0.1-0.2C3,6.2,3.4,5.9,3.6,5.8c0.1,0,3.8,0,8.3,0
	C20.2,5.8,20.2,5.8,20.5,5.8 M5.7,8.3C5.4,8.4,5.2,8.9,5.3,9.2c0,0.1,0.1,0.2,0.2,0.3c0.3,0.3,0.8,0.3,1.1,0
	c0.1-0.1,0.2-0.2,0.2-0.4c0.1-0.4-0.2-0.7-0.5-0.8C6,8.2,5.9,8.2,5.7,8.3 M8.7,8.3C8.4,8.4,8.2,8.9,8.3,9.2c0,0.1,0.1,0.2,0.2,0.3
	c0.3,0.3,0.8,0.3,1.1,0c0.1-0.1,0.2-0.2,0.2-0.4c0.1-0.4-0.2-0.7-0.5-0.8C9,8.2,8.9,8.2,8.7,8.3 M11.7,8.3c-0.4,0.1-0.6,0.6-0.5,0.9
	c0,0.1,0.1,0.2,0.2,0.3c0.5,0.5,1.4,0,1.2-0.7c-0.1-0.2-0.3-0.5-0.5-0.5C12,8.2,11.9,8.2,11.7,8.3 M14.7,8.3
	c-0.4,0.1-0.6,0.6-0.5,0.9c0,0.1,0.1,0.2,0.2,0.3c0.5,0.5,1.4,0,1.2-0.7c-0.1-0.2-0.3-0.5-0.5-0.5C15,8.2,14.9,8.2,14.7,8.3
	 M17.7,8.3c-0.4,0.1-0.6,0.6-0.5,0.9c0,0.1,0.1,0.2,0.2,0.3c0.5,0.5,1.4,0,1.2-0.7c-0.1-0.2-0.3-0.5-0.5-0.5
	C18,8.2,17.9,8.2,17.7,8.3 M5.7,11.3c-0.4,0.1-0.6,0.6-0.5,0.9c0,0.1,0.1,0.2,0.2,0.3c0.5,0.5,1.4,0,1.2-0.7
	c-0.1-0.2-0.3-0.5-0.5-0.5C6,11.2,5.9,11.2,5.7,11.3 M8.7,11.3c-0.4,0.1-0.6,0.6-0.5,0.9c0,0.1,0.1,0.2,0.2,0.3
	c0.5,0.5,1.4,0,1.2-0.7c-0.1-0.2-0.3-0.5-0.5-0.5C9,11.2,8.9,11.2,8.7,11.3 M11.7,11.3c-0.4,0.1-0.6,0.6-0.5,0.9
	c0,0.1,0.1,0.2,0.2,0.3c0.3,0.3,0.8,0.3,1.1,0c0.1-0.1,0.2-0.2,0.2-0.4c0.1-0.4-0.2-0.7-0.5-0.8C12,11.2,11.9,11.2,11.7,11.3
	 M14.7,11.3c-0.4,0.1-0.6,0.6-0.5,0.9c0,0.1,0.1,0.2,0.2,0.3c0.3,0.3,0.8,0.3,1.1,0c0.1-0.1,0.2-0.2,0.2-0.4
	c0.1-0.4-0.2-0.7-0.5-0.8C15,11.2,14.9,11.2,14.7,11.3 M17.7,11.3c-0.4,0.1-0.6,0.6-0.5,0.9c0,0.1,0.1,0.2,0.2,0.3
	c0.3,0.3,0.8,0.3,1.1,0c0.1-0.1,0.2-0.2,0.2-0.4c0.1-0.4-0.2-0.7-0.5-0.8C18,11.2,17.9,11.2,17.7,11.3 M5.7,14.3
	c-0.4,0.1-0.6,0.6-0.5,0.9c0,0.1,0.1,0.2,0.2,0.3c0.5,0.5,1.4,0,1.2-0.7c-0.1-0.2-0.3-0.5-0.5-0.5C6,14.2,5.9,14.2,5.7,14.3
	 M8.8,14.3c-0.5,0.1-0.7,0.7-0.4,1.1c0.1,0.1,0.2,0.2,0.3,0.2c0.2,0.1,0.2,0.1,3.2,0.1c2.1,0,3.1,0,3.3,0c0.8-0.2,0.8-1.2,0-1.4
	C15,14.2,9,14.2,8.8,14.3 M17.7,14.3c-0.4,0.1-0.6,0.6-0.5,0.9c0,0.1,0.1,0.2,0.2,0.3c0.3,0.3,0.8,0.3,1.1,0
	c0.1-0.1,0.2-0.2,0.2-0.4c0.1-0.4-0.2-0.7-0.5-0.8C18,14.2,17.9,14.2,17.7,14.3"/>
</svg>
