<?xml version="1.0" encoding="utf-8"?>
<!-- Generator: Adobe Illustrator 28.1.0, SVG Export Plug-In . SVG Version: 6.00 Build 0)  -->
<svg version="1.1" id="Ebene_1" xmlns="http://www.w3.org/2000/svg" xmlns:xlink="http://www.w3.org/1999/xlink" x="0px" y="0px"
	 viewBox="0 0 24 24" style="enable-background:new 0 0 24 24;" xml:space="preserve">
<style type="text/css">
	.st0{fill-rule:evenodd;clip-rule:evenodd;fill:#2563EB;}
</style>
<path class="st0" d="M6.2,2.6C6,2.7,3.4,5.3,3.3,5.5c-0.1,0.2-0.1,0.4,0,0.6C3.4,6.3,6,8.8,6.2,8.9C6.5,9,6.8,9,7,8.8
	c0.1-0.1,0.2-0.4,0.2-0.5c0-0.3-0.1-0.4-0.8-1.1L5.8,6.5h12.4l-0.6,0.7c-0.7,0.7-0.8,0.8-0.8,1.1c0,0.2,0.1,0.4,0.2,0.5
	C17.2,9,17.5,9,17.8,8.9c0.2-0.1,2.8-2.7,2.9-2.9c0-0.1,0.1-0.2,0.1-0.3c0-0.1,0-0.2-0.1-0.3c-0.1-0.2-2.7-2.8-2.9-2.9
	c-0.3-0.1-0.6-0.1-0.8,0.1c-0.1,0.1-0.2,0.4-0.2,0.5c0,0.3,0.1,0.4,0.8,1.1L18.2,5H5.8l0.6-0.7c0.7-0.7,0.8-0.8,0.8-1.1
	c0-0.2-0.1-0.4-0.2-0.5C6.8,2.5,6.5,2.5,6.2,2.6 M3.8,12c-0.2,0.1-0.4,0.2-0.5,0.4l-0.1,0.1V21l0.1,0.1c0.4,0.6,1.2,0.4,1.4-0.2
	c0.1-0.3,0.1-8.1,0-8.3C4.6,12.2,4.2,11.9,3.8,12C3.8,12,3.8,12,3.8,12 M11.8,12c-0.2,0.1-0.4,0.2-0.5,0.4l-0.1,0.1V21l0.1,0.1
	c0.4,0.6,1.2,0.4,1.4-0.2c0.1-0.3,0.1-8.1,0-8.3C12.6,12.2,12.2,11.9,11.8,12C11.8,12,11.8,12,11.8,12 M19.8,12
	c-0.2,0.1-0.4,0.2-0.5,0.4l-0.1,0.1V21l0.1,0.1c0.4,0.6,1.2,0.4,1.4-0.2c0.1-0.3,0.1-8.1,0-8.3C20.6,12.2,20.2,11.9,19.8,12
	C19.8,12,19.8,12,19.8,12 M7.8,14c-0.2,0.1-0.4,0.2-0.5,0.4l-0.1,0.1V21l0.1,0.1c0.4,0.6,1.2,0.4,1.4-0.2c0.1-0.3,0.1-6.1,0-6.3
	C8.6,14.2,8.2,13.9,7.8,14C7.8,14,7.8,14,7.8,14 M15.8,14c-0.2,0.1-0.4,0.2-0.5,0.4l-0.1,0.1V21l0.1,0.1c0.4,0.6,1.2,0.4,1.4-0.2
	c0.1-0.3,0.1-6.1,0-6.3C16.6,14.2,16.2,13.9,15.8,14C15.8,14,15.8,14,15.8,14"/>
</svg>
