<?xml version="1.0" encoding="UTF-8"?>
<svg id="Ebene_1" xmlns="http://www.w3.org/2000/svg" version="1.1" viewBox="0 0 160.7 160.7">
  <!-- Generator: Adobe Illustrator 29.4.0, SVG Export Plug-In . SVG Version: 2.1.0 Build 152)  -->
  <defs>
    <style>
      .st0 {
        fill-rule: evenodd;
      }
    </style>
  </defs>
  <path fill="#72aee6" class="st0" d="M80.3,0C36,0,0,36,0,80.3s36,80.3,80.3,80.3,80.3-36,80.3-80.3S124.7,0,80.3,0ZM68.4,32.4c1.1-4.6,5.3-8.4,10.2-9.2,3.9-.6,8.4,1.1,11,4.1,1.2,1.5,2.2,3.2,2.7,5.1.3,2.1.3,4.2,0,6.2-1,3.8-4.1,7-8,8.4-2.2.8-5.4.8-7.6,0-4-1.4-7.2-4.9-8.1-8.7-.3-1.9-.3-3.9,0-5.9h0ZM128.9,56.4c-1.3,1.4-.8,1.2-12.4,3.8-17.3,3.9-20.2,4.6-20.8,4.8-1.2.5-1.4,1.5-1.3,5.7.6,14.2,2.1,24.3,5.3,35.5,1.5,5.4,2.4,8,5.2,15.6,1.3,3.5,2.4,6.9,2.5,7.5,0,1.4-.5,3.5-1.4,4.8-.7,1.1-.9,1.2-3,2.6-1.2.8-1.4.8-2.7.7-2.8-.3-5-1.7-6.1-3.8-.5-1-2.8-7.1-7.9-20.8-5.7-15.2-5.9-16-6.1-16s-2,5-4.3,11.2c-7.2,19.2-9.3,24.8-9.9,25.8-1.1,1.9-3.6,3.1-6.4,3.1s-4.7-1.2-5.9-3.5c-1.1-2.3-1.1-3.8.5-8,6.2-17.2,8.8-26.8,10.5-39,1-6.8,1.7-19.1,1.2-20.3-.5-1.1-1.4-1.4-14.2-4.2-10-2.2-17.4-4-18.3-4.5-1.2-.6-2.7-2.1-3.2-3.3-.5-1.1-.6-3.1-.2-4.5.3-1.1,1.8-2.8,3-3.4.7-.3,1.4-.5,2.2-.5s6.4.7,12.6,1.6c17.6,2.6,19.5,2.8,26.3,3.1,7.5.3,16.9,0,22.2-.7,2-.3,8.3-1.2,14-2,12.6-1.8,14.6-2.1,15.7-1.9,1.3.2,2.8,1.2,3.6,2.5,1.8,2.8,1.5,5.9-.7,8.1h0Z"/>
</svg>