<?xml version="1.0" encoding="utf-8"?>
<!-- Generator: Adobe Illustrator 28.1.0, SVG Export Plug-In . SVG Version: 6.00 Build 0)  -->
<svg version="1.1" id="Ebene_1" xmlns="http://www.w3.org/2000/svg" xmlns:xlink="http://www.w3.org/1999/xlink" x="0px" y="0px"
	 viewBox="0 0 24 24" style="enable-background:new 0 0 24 24;" xml:space="preserve">
<style type="text/css">
	.st0{fill-rule:evenodd;clip-rule:evenodd;fill:#2563EB;}
</style>
<path class="st0" d="M10.4,4.3c-0.1,0-0.3,0.1-0.4,0.2C9.9,4.6,8.9,5.4,7.9,6.2L5.9,7.9l-1.3,0c-1.2,0-1.3,0-1.5,0.1
	c-0.5,0.2-0.8,0.5-1,1L2.1,9.2v5.6L2.2,15c0.2,0.4,0.6,0.8,1,1c0.2,0.1,0.3,0.1,1.5,0.1l1.3,0l1.8,1.5c2.2,1.8,2.1,1.8,2.4,1.9
	c0.2,0.1,0.3,0.1,0.7,0.1c0.4,0,0.5,0,0.7-0.1c0.4-0.2,0.7-0.5,0.9-0.8l0.1-0.3l0-6.3c0-6.9,0-6.5-0.2-7c-0.1-0.3-0.5-0.6-0.8-0.7
	c-0.2-0.1-0.3-0.1-0.6-0.1C10.7,4.3,10.5,4.3,10.4,4.3 M11,5.9L11,5.9l0.1,12.2L11,18.2c0,0.1-0.1,0.1-0.2,0.1
	c-0.1,0-0.8-0.6-2.1-1.7c-1.1-1-2.1-1.8-2.2-1.8c-0.1,0-0.4-0.1-1.4-0.1l-1.3,0l-0.1-0.1l-0.1-0.1V9.6l0.1-0.1l0.1-0.1l1.3,0l1.3,0
	l0.2-0.1c0.1-0.1,1.1-0.9,2.2-1.8c1.2-1,2-1.7,2.1-1.7C10.9,5.8,10.9,5.8,11,5.9 M16.1,8.7c0,0-0.1,0-0.1,0
	c-0.3,0.1-0.5,0.4-0.5,0.7c0,0.3,0.1,0.4,1.2,1.5c0.6,0.6,1,1,1,1s-0.5,0.5-1,1c-1,1-1.2,1.2-1.2,1.5c0,0.3,0.2,0.5,0.4,0.7
	c0.2,0.1,0.5,0.1,0.7,0c0.1,0,0.6-0.5,1.2-1.1l1-1l1,1c0.6,0.6,1.1,1.1,1.1,1.1c0.1,0,0.2,0.1,0.3,0.1c0.4,0,0.7-0.3,0.7-0.7
	c0-0.1,0-0.3-0.1-0.4c-0.1-0.1-0.5-0.6-1.1-1.1l-1-1l1-1c0.6-0.6,1-1.1,1.1-1.1c0.1-0.2,0.1-0.5,0-0.7c-0.2-0.3-0.7-0.5-1-0.3
	c-0.1,0-0.6,0.5-1.1,1.1l-1,1l-1-1c-0.6-0.6-1.1-1-1.1-1.1C16.4,8.7,16.1,8.7,16.1,8.7"/>
</svg>
