<svg fill="#2563eb" xmlns="http://www.w3.org/2000/svg" viewBox="0 0 24 24" style="enable-background:new 0 0 24 24" xml:space="preserve"><path d="M10.62 4.254c-.402.104-.266 0-2.757 2.118l-1.716 1.46-1.244.019c-1.351.02-1.451.034-1.823.253a1.522 1.522 0 0 0-.59.598c-.23.393-.23.398-.23 3.298s0 2.905.23 3.298c.158.273.327.443.59.598.372.219.472.233 1.824.253l1.243.019 1.94 1.646c1.067.905 1.992 1.676 2.056 1.712.335.19.91.256 1.333.155.572-.137 1.059-.624 1.209-1.207.045-.177.055-1.3.055-6.474V5.74l-.13-.384a2.352 2.352 0 0 0-.267-.564 1.641 1.641 0 0 0-.705-.493c-.243-.087-.77-.11-1.018-.045m.559 1.544c.054.104.061.83.061 6.232 0 4.702-.011 6.125-.048 6.162-.026.026-.104.048-.172.048-.105 0-.422-.254-2.102-1.684-1.088-.926-2.049-1.732-2.135-1.79l-.157-.106-1.382-.012c-.898-.009-1.4-.028-1.433-.055-.075-.063-.075-5.123 0-5.186.033-.027.535-.046 1.433-.055l1.382-.012.157-.106c.086-.058 1.066-.881 2.177-1.828 1.111-.948 2.051-1.724 2.089-1.724.038-.001.096.051.13.116m6.236.679a.8.8 0 0 0-.462.354l-.093.149v10.04l.093.149c.357.574 1.223.443 1.363-.207.059-.278.06-9.663.001-9.921a.747.747 0 0 0-.902-.564M15.02 8.26a2.274 2.274 0 0 1-.149.037c-.147.032-.39.251-.457.411-.044.105-.054.726-.054 3.288 0 2.135.014 3.195.043 3.271a.75.75 0 0 0 .697.464.75.75 0 0 0 .697-.464c.029-.076.043-1.135.043-3.267 0-2.132-.014-3.191-.043-3.267a.885.885 0 0 0-.357-.391c-.108-.055-.355-.104-.42-.082" fill-rule="evenodd"></path></svg>