<svg fill="#fff" xmlns="http://www.w3.org/2000/svg" viewBox="0 0 24 24"><path d="M15.42 2.345c-.822.173-1.643.873-1.95 1.664l-.089.23-5.301.01-5.3.011-.153.095a.714.714 0 0 0-.36.648c0 .2.019.267.116.405a.939.939 0 0 0 .277.248c.159.084.182.084 5.432.104l5.272.02.094.232c.435 1.068 1.438 1.75 2.574 1.747.809-.002 1.62-.383 2.108-.991.176-.22.461-.733.509-.918l.024-.09h1.141c1.333 0 1.488-.022 1.706-.24.398-.398.21-1.097-.331-1.234-.119-.03-.602-.046-1.361-.046h-1.177l-.085-.233c-.163-.447-.57-.961-.988-1.248a2.822 2.822 0 0 0-2.158-.414m1.126 1.554c.256.116.488.344.612.603.129.269.136.753.014 1.023a1.315 1.315 0 0 1-.606.624c-.31.152-.767.157-1.064.011-.776-.38-.962-1.383-.37-1.993.385-.398.905-.496 1.414-.268M7.42 9.345c-.821.173-1.643.873-1.949 1.663l-.089.227-1.304.013-1.304.012-.162.107a.7.7 0 0 0-.345.64c0 .196.019.263.116.401.228.321.266.329 1.709.352l1.272.02.094.232a2.76 2.76 0 0 0 2.574 1.747c.809-.002 1.62-.383 2.108-.991.176-.22.461-.733.509-.918l.024-.09h5.141c3.604 0 5.204-.013 5.348-.044.742-.159.762-1.245.027-1.43-.135-.034-1.57-.046-5.361-.046h-5.177l-.085-.233c-.163-.447-.57-.961-.988-1.248a2.822 2.822 0 0 0-2.158-.414m1.126 1.554c.256.116.488.344.612.603.129.269.136.753.014 1.023a1.315 1.315 0 0 1-.606.624c-.31.152-.767.157-1.064.011-.776-.38-.962-1.383-.37-1.993.385-.398.905-.496 1.414-.268m6.874 5.446c-.822.173-1.643.873-1.95 1.664l-.089.23-5.301.01-5.3.011-.153.095a.714.714 0 0 0-.36.648c0 .2.019.267.116.405a.939.939 0 0 0 .277.248c.159.084.182.084 5.432.104l5.272.02.094.232c.435 1.068 1.438 1.75 2.574 1.747.809-.002 1.62-.383 2.108-.991.176-.22.461-.733.509-.918l.024-.09h1.141c1.333 0 1.488-.022 1.706-.24.398-.398.21-1.097-.331-1.234-.119-.03-.602-.046-1.361-.046h-1.177l-.085-.233c-.163-.447-.57-.961-.988-1.248a2.822 2.822 0 0 0-2.158-.414m1.126 1.554c.256.116.488.344.612.603.129.269.136.753.014 1.023a1.315 1.315 0 0 1-.606.624c-.31.152-.767.157-1.064.011-.776-.38-.962-1.383-.37-1.993.385-.398.905-.496 1.414-.268" fill-rule="evenodd"></path></svg>