<?xml version="1.0" encoding="utf-8"?>
<!-- Generator: Adobe Illustrator 28.1.0, SVG Export Plug-In . SVG Version: 6.00 Build 0)  -->
<svg version="1.1" id="Ebene_1" xmlns="http://www.w3.org/2000/svg" xmlns:xlink="http://www.w3.org/1999/xlink" x="0px" y="0px"
	 viewBox="0 0 24 24" style="enable-background:new 0 0 24 24;" xml:space="preserve">
<style type="text/css">
	.st0{fill-rule:evenodd;clip-rule:evenodd;fill:#2563EB;}
</style>
<path class="st0" d="M11.8,2.3c-0.2,0.1-0.4,0.2-0.5,0.4l-0.1,0.1v3.4l0.1,0.1c0.4,0.6,1.2,0.4,1.4-0.2c0.1-0.3,0.1-3.1,0-3.3
	C12.6,2.4,12.2,2.2,11.8,2.3C11.8,2.3,11.8,2.3,11.8,2.3 M5.4,4.9C5,5.1,4.8,5.5,5,5.9C5,6,5,6,5,6c0,0.1,0.6,0.6,1.2,1.3
	c1.1,1.1,1.2,1.1,1.3,1.2c0.6,0.1,1-0.3,0.9-0.9c0-0.2-0.1-0.3-1.2-1.3C6.7,5.6,6.1,5,6,5C5.8,4.9,5.6,4.9,5.4,4.9 M18.1,4.9
	c-0.1,0-0.4,0.3-1.3,1.2c-0.6,0.6-1.2,1.2-1.2,1.3c-0.1,0.2-0.1,0.5,0,0.7c0.2,0.3,0.5,0.4,0.8,0.3c0.2,0,0.3-0.1,1.3-1.2
	C18.4,6.7,19,6.1,19,6c0.2-0.3,0.1-0.7-0.1-0.9C18.7,4.9,18.4,4.8,18.1,4.9 M2.8,11.3c-0.5,0.1-0.7,0.7-0.4,1.1
	c0.1,0.1,0.2,0.2,0.3,0.2c0.2,0.1,0.2,0.1,1.7,0.1c1.8,0,1.9,0,2.1-0.2c0.4-0.4,0.2-1.1-0.3-1.2C6,11.2,3,11.2,2.8,11.3 M17.8,11.3
	c-0.5,0.1-0.7,0.7-0.4,1.1c0.1,0.1,0.2,0.2,0.3,0.2c0.2,0.1,0.2,0.1,1.7,0.1c1.8,0,1.9,0,2.1-0.2c0.4-0.4,0.2-1.1-0.3-1.2
	C21,11.2,18,11.2,17.8,11.3 M7.6,15.5c-0.2,0-0.3,0.1-1.3,1.2C5.6,17.3,5,17.9,5,18c-0.2,0.3-0.1,0.7,0.1,0.9
	C5.4,19.1,5.7,19.2,6,19c0.1,0,0.6-0.6,1.3-1.2c1.1-1.1,1.1-1.2,1.2-1.3c0.1-0.3-0.1-0.7-0.3-0.8C8,15.5,7.8,15.5,7.6,15.5
	 M16.1,15.5c-0.4,0.1-0.7,0.5-0.6,0.9c0,0.2,0.1,0.3,1.2,1.3c0.6,0.6,1.2,1.2,1.3,1.2c0.7,0.4,1.4-0.4,1-1c0-0.1-0.6-0.6-1.2-1.3
	c-0.9-0.9-1.2-1.2-1.3-1.2c-0.1,0-0.1,0-0.2,0C16.2,15.5,16.2,15.5,16.1,15.5 M11.8,17.3c-0.2,0.1-0.4,0.2-0.5,0.4l-0.1,0.1v3.4
	l0.1,0.1c0.4,0.6,1.2,0.4,1.4-0.2c0.1-0.3,0.1-3.1,0-3.3C12.6,17.4,12.2,17.2,11.8,17.3C11.8,17.3,11.8,17.3,11.8,17.3"/>
</svg>
