<svg fill="#fff" xmlns="http://www.w3.org/2000/svg" viewBox="0 0 24 24"><path d="M6.06 2.284c-1.708.166-3.166 1.395-3.64 3.067-.2.705-.199 1.619.003 2.315a4.25 4.25 0 0 0 2.915 2.912c.616.179.99.188 6.782.172 5.026-.014 5.442-.02 5.72-.086 1.333-.316 2.372-1.111 2.959-2.263.381-.747.529-1.767.379-2.624-.301-1.728-1.551-3.017-3.338-3.441-.279-.067-.683-.072-5.86-.079-3.058-.004-5.722.008-5.92.027m11.636 1.555c.483.123.833.329 1.227.72.38.377.536.622.702 1.101.098.286.11.376.11.84 0 .464-.012.554-.11.84-.166.478-.322.724-.702 1.103-.266.264-.419.38-.672.507-.622.311-.217.294-6.631.281L5.9 9.22l-.26-.093c-.809-.288-1.496-.977-1.762-1.767-.12-.355-.15-1.065-.063-1.475.163-.767.748-1.5 1.49-1.866.535-.265.226-.252 6.439-.256 5.491-.003 5.652-.001 5.952.076M6.277 5.282a1.183 1.183 0 0 0-.652.344 1.244 1.244 0 0 0 0 1.749 1.245 1.245 0 0 0 1.75 0c.239-.238.354-.522.354-.875 0-.228-.022-.341-.099-.507a1.253 1.253 0 0 0-1.353-.711m-.217 8.002c-1.708.166-3.166 1.395-3.64 3.067-.2.705-.199 1.619.003 2.315a4.25 4.25 0 0 0 2.915 2.912c.616.179.99.188 6.782.172 5.026-.014 5.442-.02 5.72-.086 1.333-.316 2.372-1.111 2.959-2.263.381-.747.529-1.767.379-2.624-.301-1.728-1.551-3.017-3.338-3.441-.279-.067-.683-.072-5.86-.079-3.058-.004-5.722.008-5.92.027m11.636 1.555c.483.123.833.329 1.227.72.38.377.536.622.702 1.101.098.286.11.376.11.84 0 .464-.012.554-.11.84-.166.478-.322.724-.702 1.103-.266.264-.419.38-.672.507-.622.311-.217.294-6.631.281L5.9 20.22l-.26-.093c-.809-.288-1.496-.977-1.762-1.767-.12-.355-.15-1.065-.063-1.475.163-.767.748-1.5 1.49-1.866.535-.265.226-.252 6.439-.256 5.491-.003 5.652-.001 5.952.076m-.976 1.456c-.898.198-1.262 1.31-.66 2.014.487.57 1.393.57 1.88 0 .62-.724.22-1.852-.718-2.025a3.237 3.237 0 0 0-.259-.041l-.243.052" fill-rule="evenodd"></path></svg>