<?xml version="1.0" encoding="utf-8"?>
<!-- Generator: Adobe Illustrator 28.1.0, SVG Export Plug-In . SVG Version: 6.00 Build 0)  -->
<svg version="1.1" id="Ebene_1" xmlns="http://www.w3.org/2000/svg" xmlns:xlink="http://www.w3.org/1999/xlink" x="0px" y="0px"
	 viewBox="0 0 24 24" style="enable-background:new 0 0 24 24;" xml:space="preserve">
<style type="text/css">
	.st0{fill-rule:evenodd;clip-rule:evenodd;fill:#2563EB;}
</style>
<path class="st0" d="M10.9,3.3C8.1,3.5,5.6,5.1,4.3,7.5c-0.8,1.5-1.2,3.2-1,4.8c0.3,2.9,2,5.3,4.6,6.6c2.8,1.4,6.2,1,8.7-0.9
	l0.2-0.2l1.4,1.4c1.4,1.4,1.5,1.4,1.6,1.5c0.6,0.1,1-0.3,0.9-0.9c0-0.2-0.1-0.3-1.5-1.6l-1.4-1.4l0.2-0.3c1.6-2.2,2.1-5.1,1.2-7.6
	C18.1,5.3,14.7,3,10.9,3.3 M12.5,4.8c1.5,0.2,2.7,0.8,3.7,1.9c1,1.1,1.7,2.3,1.9,3.8c0.1,0.5,0.1,1.5,0,1.9
	c-0.2,1.5-0.9,2.8-1.9,3.8c-1.3,1.3-2.9,2-4.7,2c-1.1,0-2.1-0.2-3.1-0.7c-0.6-0.3-1.2-0.7-1.6-1.2c-1.2-1.2-1.9-2.7-2-4.5
	c-0.1-1.1,0.3-2.8,1-3.9c1.1-1.7,2.8-2.9,4.8-3.2C11,4.8,12,4.8,12.5,4.8 M11.2,7.4c-0.2,0.1-0.3,0.2-0.4,0.4
	c-0.1,0.1-0.1,0.4-0.1,1.5v1.4l-1.4,0c-1.3,0-1.4,0-1.6,0.1c-0.2,0.1-0.3,0.2-0.4,0.4c-0.1,0.3-0.1,0.6,0.1,0.8
	c0.1,0.1,0.1,0.1,0.2,0.2c0.1,0.1,0.3,0.1,1.6,0.1l1.4,0v1.4c0,0.9,0,1.4,0,1.5c0.1,0.3,0.4,0.5,0.7,0.5c0.3,0,0.6-0.2,0.7-0.5
	c0-0.1,0-0.6,0-1.5v-1.4h1.4c0.9,0,1.4,0,1.5,0c0.3-0.1,0.5-0.4,0.5-0.7c0-0.3-0.2-0.6-0.5-0.7c-0.1,0-0.6,0-1.5,0h-1.4l0-1.4
	c0-1.3,0-1.4-0.1-1.6c-0.1-0.2-0.2-0.3-0.4-0.4C11.6,7.3,11.4,7.4,11.2,7.4"/>
</svg>
