<?xml version="1.0" encoding="utf-8"?>
<!-- Generator: Adobe Illustrator 28.1.0, SVG Export Plug-In . SVG Version: 6.00 Build 0)  -->
<svg version="1.1" id="Ebene_1" xmlns="http://www.w3.org/2000/svg" xmlns:xlink="http://www.w3.org/1999/xlink" x="0px" y="0px"
	 viewBox="0 0 24 24" style="enable-background:new 0 0 24 24;" xml:space="preserve">
<style type="text/css">
	.st0{fill-rule:evenodd;clip-rule:evenodd;fill:#2563EB;}
</style>
<path class="st0" d="M7.5,2.3C5,2.5,2.9,4.4,2.4,6.8C2.3,7.4,2.2,8.1,2.2,12s0,4.6,0.1,5.2c0.4,2.2,2.2,4,4.4,4.4
	c0.6,0.1,1.3,0.1,5.2,0.1s4.6,0,5.2-0.1c2.2-0.4,4-2.2,4.4-4.4c0.1-0.6,0.1-1.3,0.1-5.2s0-4.6-0.1-5.2c-0.3-1.4-1.2-2.8-2.4-3.6
	c-0.9-0.6-1.7-0.9-2.8-0.9C15.9,2.2,8.1,2.2,7.5,2.3 M17,3.9c1.6,0.5,2.7,1.6,3.1,3.2c0.1,0.2,0.1,0.6,0.1,5s0,4.7-0.1,5
	c-0.2,0.8-0.6,1.5-1.1,2c-0.6,0.6-1.2,0.9-2,1.1c-0.2,0.1-0.6,0.1-5,0.1s-4.7,0-5-0.1c-0.8-0.2-1.5-0.6-2-1.1c-0.6-0.6-1-1.3-1.1-2
	c-0.1-0.3-0.1-0.5-0.1-5V7.3L3.9,7C4.1,6.2,4.5,5.5,5,5c0.7-0.6,1.5-1.1,2.4-1.2c0.1,0,2.2,0,4.7,0C16.7,3.8,16.7,3.8,17,3.9
	 M7.2,7.8C7,7.9,6.9,8,6.8,8.2C6.7,8.5,6.8,8.9,7,9c0.2,0.2,0,0.2,5,0.2c4.4,0,4.7,0,4.8-0.1C17,9.1,17.1,9,17.2,8.8
	c0.1-0.2,0.1-0.4,0-0.6C17.1,8,17,7.9,16.8,7.8c-0.2-0.1-0.4-0.1-4.8-0.1S7.3,7.8,7.2,7.8 M7.4,11.3c0,0-0.1,0-0.1,0
	c-0.1,0-0.4,0.3-0.5,0.4c-0.1,0.3,0,0.6,0.2,0.8c0.1,0.1,0.2,0.1,0.3,0.2c0.1,0,9.3,0,9.5,0c0.2,0,0.4-0.3,0.5-0.4
	c0.1-0.3,0.1-0.6-0.1-0.8c-0.2-0.3,0.1-0.2-5-0.3C10.5,11.2,9,11.2,7.4,11.3 M7.2,14.8C7,14.9,6.9,15,6.8,15.2
	c-0.1,0.3,0,0.7,0.2,0.8c0.2,0.2,0,0.2,5,0.2c4.4,0,4.7,0,4.8-0.1c0.2-0.1,0.3-0.2,0.4-0.4c0.1-0.2,0.1-0.4,0-0.6
	c-0.1-0.2-0.2-0.3-0.4-0.4c-0.2-0.1-0.4-0.1-4.8-0.1S7.3,14.8,7.2,14.8"/>
</svg>
