<svg style="position: relative; bottom: 1px; z-index: 999;" width="22" height="22" viewBox="0 0 247 229" fill="none" xmlns="http://www.w3.org/2000/svg">
	<path d="M228.415 44.7346L169.948 52.1904C139.199 56.0958 107.873 56.0958 77.1238 52.1904L18.6573 44.7346C9.92345 43.4328 1.55047 48.0483 0.179037 55.0899C-1.12022 61.7765 4.79861 68.0488 13.1716 69.3506L83.4757 82.3687C86.6517 82.8421 88.8893 85.0315 88.8893 87.576C88.8893 125.683 81.0938 155.211 65.7192 191.307L57.5628 210.538C54.5312 217.579 58.9342 225.509 67.7403 228.112C76.9795 230.834 87.0848 226.988 90.1885 219.65L123.464 147.223L156.739 219.65C159.193 225.39 165.906 229 173.124 229C180.342 229 176.806 228.763 178.682 228.29C187.705 225.864 192.613 218.112 189.582 210.893L181.281 191.307C165.978 155.211 158.111 125.683 158.111 87.576C158.111 85.0315 160.421 82.8421 163.524 82.3687L233.828 69.3506C242.201 68.108 248.12 61.8356 246.821 55.1491C245.45 48.1666 237.004 43.4919 228.343 44.7938H228.415V44.7346Z" fill="white"/><path d="M123.536 49.2321C140.12 49.2321 153.563 38.2111 153.563 24.616C153.563 11.021 140.12 0 123.536 0C106.952 0 93.5088 11.021 93.5088 24.616C93.5088 38.2111 106.952 49.2321 123.536 49.2321Z" fill="white"/>
</svg>