<svg xmlns="http://www.w3.org/2000/svg" xmlns:xlink="http://www.w3.org/1999/xlink" viewBox="0 0 512 512">
			<path d="M396.798,247.467c-48.288,0-88.175,34.989-93.303,79.799l-5.876-3.203c-7.253-3.959-11.75-11.546-11.75-19.806v-28.228
				c5.709-7.484,22.076-30.814,29.892-61.764c8.055-6.468,12.774-16.154,12.774-26.53V153.6c0-8.218-3.072-16.188-8.533-22.4V85.811
				c0.478-4.693,2.355-32.64-17.852-55.689C284.622,10.129,256.172,0,217.602,0c-38.579,0-67.029,10.129-84.557,30.123
				c-20.207,23.049-18.33,50.995-17.843,55.689V131.2c-5.47,6.212-8.533,14.182-8.533,22.4v34.133
				c0,10.377,4.71,20.062,12.774,26.53c7.817,30.95,24.183,54.281,29.892,61.764v28.228c0,8.26-4.506,15.846-11.75,19.806
				l-76.143,41.523c-24.747,13.5-40.107,39.398-40.107,67.584v19.098c0,4.71,3.814,8.533,8.533,8.533h328.298
				c16.987,27.016,31.459,47.303,31.695,47.633c1.596,2.236,4.19,3.567,6.938,3.567c2.748,0,5.342-1.331,6.938-3.567
				c0.384-0.538,38.63-54.153,63.906-103.475c1.715-3.345,3.371-6.494,4.949-9.498c10.095-19.191,18.074-34.355,18.074-58.402
				C490.665,287.659,448.553,247.467,396.798,247.467z M38.402,443.733v-10.564c0-21.939,11.964-42.095,31.215-52.599l76.134-41.532
				c12.74-6.946,20.651-20.275,20.651-34.782v-31.189c0-1.988-0.708-3.934-1.988-5.47c-0.205-0.247-21.163-25.737-29.099-60.297
				c-0.503-2.167-1.818-4.053-3.686-5.257c-4.949-3.2-7.893-8.55-7.893-14.31V153.6c0-4.787,2.031-9.25,5.717-12.578
				c1.792-1.621,2.816-3.925,2.816-6.34V85.333c0-0.375-0.026-0.742-0.077-1.118c-0.034-0.239-2.927-23.876,13.687-42.837
				c14.148-16.137,38.281-24.311,71.723-24.311c33.323,0,57.395,8.124,71.552,24.141c16.623,18.782,13.875,42.803,13.85,43.008
				c-0.043,0.375-0.068,0.742-0.068,1.118v49.348c0,2.415,1.024,4.719,2.816,6.34c3.678,3.328,5.717,7.791,5.717,12.578v34.133
				c0,5.76-2.953,11.11-7.902,14.31c-1.869,1.203-3.183,3.089-3.686,5.257c-7.927,34.56-28.894,60.049-29.099,60.297
				c-1.271,1.536-1.98,3.482-1.98,5.47v31.189c0,14.507,7.902,27.836,20.651,34.782l13.947,7.61
				c1.821,18.763,8.923,32.306,17.606,48.813c1.579,3.004,3.234,6.153,4.949,9.498c6.65,12.977,14.198,26.249,21.718,38.775H38.402z
				 M457.487,387.516c-1.604,3.055-3.285,6.255-5.035,9.66c-18.278,35.661-43.588,73.754-55.654,91.358
				c-12.066-17.596-37.367-55.68-55.654-91.358c-1.749-3.405-3.43-6.605-5.035-9.66c-8.823-16.77-14.905-28.385-15.938-45.263
				c0.077-0.815,0.037-1.632-0.117-2.425c-0.029-0.912-0.057-1.824-0.057-2.769c0-39.987,34.449-72.525,76.8-72.525
				c42.351,0,76.8,32.538,76.8,72.525C473.598,356.89,467.19,369.075,457.487,387.516z"/>
			<path d="M396.798,298.667c-23.526,0-42.667,19.14-42.667,42.667c0,23.526,19.14,42.667,42.667,42.667
				c23.526,0,42.667-19.14,42.667-42.667C439.465,317.807,420.325,298.667,396.798,298.667z M396.798,366.933
				c-14.114,0-25.6-11.486-25.6-25.6s11.486-25.6,25.6-25.6c14.114,0,25.6,11.486,25.6,25.6S410.912,366.933,396.798,366.933z"/>
</svg>
